<?xml version="1.0" standalone="no"?>
<!DOCTYPE svg PUBLIC "-//W3C//DTD SVG 1.1//EN" "http://www.w3.org/Graphics/SVG/1.1/DTD/svg11.dtd">
<svg xmlns="http://www.w3.org/2000/svg" id="Ebene_2" data-name="Ebene 2" viewBox="0 0 260.47 240.22" width="260.4700012207031" height="240.22000122070312">
  <defs>
    <style>
      .cls-1 {
        fill: #c9c8c8;
      }
    </style>
  </defs>
  <g id="Ebene_1-2" data-name="Ebene 1">
    <g>
      <path class="cls-1" d="M23.66,186.23c0,3.32,2.69,6,6,6s6-2.69,6-6-2.68-6-6-6-6,2.69-6,6"/>
      <path class="cls-1" d="M49.97,116.39c0,3.32,2.69,6,6,6s6-2.69,6-6-2.68-6-6-6-6,2.69-6,6"/>
      <path class="cls-1" d="M149.94,44c0,3.31,2.68,6,6,6s6-2.69,6-6-2.69-6-6-6-6,2.69-6,6"/>
      <path class="cls-1" d="M99,163.43c0,3.32,2.69,6,6,6s6-2.69,6-6-2.68-6-6-6-6,2.69-6,6"/>
      <path class="cls-1" d="M149.27,164.34c0,3.31,2.69,6,6,6s6-2.69,6-6-2.69-6-6-6-6,2.69-6,6"/>
      <path class="cls-1" d="M25.12,115.47c0,3.31,2.69,6,6,6s6.01-2.69,6.01-6-2.69-6-6.01-6-6,2.69-6,6"/>
      <path class="cls-1" d="M0,115.47c0,3.31,2.68,6,6,6s6-2.69,6-6-2.69-6-6-6-6,2.69-6,6"/>
      <path class="cls-1" d="M49.97,139.16c0,3.31,2.69,6,6,6s6-2.69,6-6-2.68-6-6-6-6,2.69-6,6"/>
      <path class="cls-1" d="M149.94,66.77c0,3.32,2.68,6,6,6s6-2.69,6-6-2.69-6-6-6-6,2.69-6,6"/>
      <path class="cls-1" d="M49.97,161.7c0,3.32,2.69,6,6,6s6-2.69,6-6-2.68-6-6-6-6,2.69-6,6"/>
      <path class="cls-1" d="M149.94,89.32c0,3.31,2.68,6,6,6s6-2.69,6-6-2.69-6-6-6-6,2.69-6,6"/>
      <path class="cls-1" d="M49.97,93.62c0,3.31,2.69,6,6,6s6-2.69,6-6-2.68-6-6-6-6,2.69-6,6"/>
      <path class="cls-1" d="M74.82,67.52c0,3.32,2.69,6,6,6s6-2.69,6-6-2.69-6-6-6-6,2.69-6,6"/>
      <path class="cls-1" d="M100.58,42.41c0,3.31,2.68,6,6,6s6-2.69,6-6-2.69-6-6-6-6,2.69-6,6"/>
      <path class="cls-1" d="M74.25,42.41c0,3.31,2.69,6,6,6s6-2.69,6-6-2.68-6-6-6-6,2.69-6,6"/>
      <path class="cls-1" d="M125.43,60.49c0,3.31,2.68,6,6,6s6-2.69,6-6-2.69-6-6-6-6,2.69-6,6"/>
      <path class="cls-1" d="M125.43,115.47c0,3.31,2.68,6,6,6s6-2.69,6-6-2.69-6-6-6-6,2.69-6,6"/>
      <path class="cls-1" d="M148.51,115.47c0,3.31,2.68,6,6,6s6-2.69,6-6-2.69-6-6-6-6,2.69-6,6"/>
      <path class="cls-1" d="M248.47,43.09c0,3.31,2.68,6,6,6s6-2.69,6-6-2.69-6-6-6-6,2.69-6,6"/>
      <path class="cls-1" d="M99,186.23c0,3.32,2.69,6,6,6s6-2.69,6-6-2.68-6-6-6-6,2.69-6,6"/>
      <path class="cls-1" d="M74.82,209.11c0,3.32,2.69,6,6,6s6-2.69,6-6-2.69-6-6-6-6,2.69-6,6"/>
      <path class="cls-1" d="M49.97,6c0,3.31,2.69,6,6,6s6-2.69,6-6-2.68-6-6-6-6,2.69-6,6"/>
      <path class="cls-1" d="M74.82,234.22c0,3.32,2.69,6,6,6s6-2.69,6-6-2.69-6-6-6-6,2.69-6,6"/>
      <path class="cls-1" d="M24.28,162.84c0,3.32,2.68,6,6,6s6-2.69,6-6-2.69-6-6-6-6,2.69-6,6"/>
      <path class="cls-1" d="M0,140.04c0,3.32,2.68,6,6,6s6-2.69,6-6-2.69-6-6-6-6,2.69-6,6"/>
      <path class="cls-1" d="M0,162.26c0,3.31,2.68,6,6,6s6-2.69,6-6-2.69-6-6-6-6,2.69-6,6"/>
      <path class="cls-1" d="M25.12,139.16c0,3.31,2.69,6,6,6s6.01-2.69,6.01-6-2.69-6-6.01-6-6,2.69-6,6"/>
      <path class="cls-1" d="M74.82,138.32c0,3.32,2.69,6,6,6s6-2.69,6-6-2.69-6-6-6-6,2.69-6,6"/>
      <path class="cls-1" d="M174.78,65.93c0,3.32,2.69,6,6,6s6.01-2.69,6.01-6-2.69-6-6.01-6-6,2.69-6,6"/>
      <path class="cls-1" d="M125.09,139.23c0,3.31,2.68,6,6,6s6-2.69,6-6-2.69-6-6-6-6,2.69-6,6"/>
      <path class="cls-1" d="M100.58,90.36c0,3.32,2.68,6,6,6s6-2.69,6-6-2.69-6-6-6-6,2.69-6,6"/>
      <path class="cls-1" d="M99.67,138.32c0,3.32,2.69,6,6,6s6-2.69,6-6-2.69-6-6-6-6,2.69-6,6"/>
      <path class="cls-1" d="M199.63,65.93c0,3.32,2.69,6,6,6s6-2.69,6-6-2.68-6-6-6-6,2.69-6,6"/>
      <path class="cls-1" d="M149.94,139.23c0,3.31,2.68,6,6,6s6-2.69,6-6-2.69-6-6-6-6,2.69-6,6"/>
      <path class="cls-1" d="M173.2,139.16c0,3.31,2.69,6,6,6s6-2.69,6-6-2.68-6-6-6-6,2.69-6,6"/>
      <path class="cls-1" d="M125.43,90.36c0,3.32,2.68,6,6,6s6-2.69,6-6-2.69-6-6-6-6,2.69-6,6"/>
      <path class="cls-1" d="M74.25,115.47c0,3.31,2.69,6,6,6s6-2.69,6-6-2.68-6-6-6-6,2.69-6,6"/>
      <path class="cls-1" d="M174.22,43.09c0,3.31,2.68,6,6,6s6-2.69,6-6-2.69-6-6-6-6,2.69-6,6"/>
      <path class="cls-1" d="M149.27,186.23c0,3.32,2.69,6,6,6s6-2.69,6-6-2.69-6-6-6-6,2.69-6,6"/>
      <path class="cls-1" d="M74.82,163.43c0,3.32,2.69,6,6,6s6-2.69,6-6-2.69-6-6-6-6,2.69-6,6"/>
      <path class="cls-1" d="M174.78,91.04c0,3.31,2.69,6,6,6s6.01-2.69,6.01-6-2.69-6-6.01-6-6,2.69-6,6"/>
      <path class="cls-1" d="M125.09,164.34c0,3.31,2.68,6,6,6s6-2.69,6-6-2.69-6-6-6-6,2.69-6,6"/>
      <path class="cls-1" d="M225.05,91.96c0,3.32,2.69,6,6,6s6-2.69,6-6-2.69-6-6-6-6,2.69-6,6"/>
      <path class="cls-1" d="M100.58,115.47c0,3.31,2.68,6,6,6s6-2.69,6-6-2.69-6-6-6-6,2.69-6,6"/>
    </g>
  </g>
</svg>