<?xml version="1.0" standalone="no"?>
<!DOCTYPE svg PUBLIC "-//W3C//DTD SVG 1.1//EN" "http://www.w3.org/Graphics/SVG/1.1/DTD/svg11.dtd">
<svg xmlns="http://www.w3.org/2000/svg" id="Ebene_2" data-name="Ebene 2" viewBox="0 0 229.25 151.78" width="229.25" height="151.77999877929688">
  <g id="Ebene_1-2" data-name="Ebene 1">
    <g>
      <path d="M24.2,77.91c0,3.23,2.62,5.84,5.85,5.84s5.84-2.62,5.84-5.84-2.61-5.85-5.84-5.85-5.85,2.62-5.85,5.85"/>
      <path d="M0,77.02c0,3.23,2.62,5.85,5.84,5.85s5.85-2.62,5.85-5.85-2.62-5.84-5.85-5.84-5.84,2.62-5.84,5.84"/>
      <path d="M24.2,100.09c0,3.23,2.62,5.84,5.85,5.84s5.84-2.62,5.84-5.84-2.61-5.84-5.84-5.84-5.85,2.62-5.85,5.84"/>
      <path d="M24.2,122.05c0,3.23,2.62,5.85,5.85,5.85s5.84-2.62,5.84-5.85-2.61-5.84-5.84-5.84-5.85,2.62-5.85,5.84"/>
      <path d="M121.58,51.53c0,3.23,2.62,5.85,5.84,5.85s5.85-2.62,5.85-5.85-2.62-5.84-5.85-5.84-5.84,2.62-5.84,5.84"/>
      <path d="M24.2,55.73c0,3.23,2.62,5.84,5.85,5.84s5.84-2.62,5.84-5.84-2.61-5.84-5.84-5.84-5.85,2.62-5.85,5.84"/>
      <path d="M73.5,5.85c0,3.23,2.62,5.84,5.84,5.84s5.85-2.62,5.85-5.84-2.62-5.85-5.85-5.85-5.84,2.62-5.84,5.85"/>
      <path d="M97.7,77.02c0,3.23,2.62,5.85,5.85,5.85s5.84-2.62,5.84-5.85-2.61-5.84-5.84-5.84-5.85,2.62-5.85,5.84"/>
      <path d="M120.18,77.02c0,3.23,2.62,5.85,5.85,5.85s5.85-2.62,5.85-5.85-2.62-5.84-5.85-5.84-5.85,2.62-5.85,5.84"/>
      <path d="M217.56,6.5c0,3.23,2.62,5.84,5.84,5.84s5.85-2.62,5.85-5.84-2.62-5.85-5.85-5.85-5.84,2.62-5.84,5.85"/>
      <path d="M71.96,145.94c0,3.23,2.62,5.84,5.85,5.84s5.85-2.62,5.85-5.84-2.62-5.84-5.85-5.84-5.85,2.62-5.85,5.84"/>
      <path d="M0,100.09c0,3.23,2.62,5.84,5.84,5.84s5.85-2.62,5.85-5.84-2.62-5.84-5.85-5.84-5.84,2.62-5.84,5.84"/>
      <path d="M48.41,99.27c0,3.23,2.62,5.85,5.84,5.85s5.85-2.62,5.85-5.85-2.62-5.84-5.85-5.84-5.84,2.62-5.84,5.84"/>
      <path d="M97.37,100.16c0,3.23,2.62,5.84,5.85,5.84s5.84-2.62,5.84-5.84-2.61-5.84-5.84-5.84-5.85,2.62-5.85,5.84"/>
      <path d="M73.5,52.56c0,3.23,2.62,5.85,5.84,5.85s5.85-2.62,5.85-5.85-2.62-5.84-5.85-5.84-5.84,2.62-5.84,5.84"/>
      <path d="M72.61,99.27c0,3.23,2.62,5.85,5.85,5.85s5.84-2.62,5.84-5.85-2.61-5.84-5.84-5.84-5.85,2.62-5.85,5.84"/>
      <path d="M121.58,100.16c0,3.23,2.62,5.84,5.84,5.84s5.85-2.62,5.85-5.84-2.62-5.84-5.85-5.84-5.84,2.62-5.84,5.84"/>
      <path d="M144.24,100.09c0,3.23,2.62,5.84,5.85,5.84s5.84-2.62,5.84-5.84-2.61-5.84-5.84-5.84-5.85,2.62-5.85,5.84"/>
      <path d="M97.7,52.56c0,3.23,2.62,5.85,5.85,5.85s5.84-2.62,5.84-5.85-2.61-5.84-5.84-5.84-5.85,2.62-5.85,5.84"/>
      <path d="M47.85,77.02c0,3.23,2.62,5.85,5.85,5.85s5.85-2.62,5.85-5.85-2.62-5.84-5.85-5.84-5.85,2.62-5.85,5.84"/>
      <path d="M48.41,123.73c0,3.23,2.62,5.84,5.84,5.84s5.85-2.62,5.85-5.84-2.62-5.85-5.85-5.85-5.84,2.62-5.84,5.85"/>
      <path d="M145.78,53.21c0,3.23,2.62,5.84,5.85,5.84s5.84-2.62,5.84-5.84-2.61-5.85-5.84-5.85-5.85,2.62-5.85,5.85"/>
      <path d="M194.75,54.11c0,3.23,2.62,5.85,5.84,5.85s5.85-2.62,5.85-5.85-2.62-5.84-5.85-5.84-5.84,2.62-5.84,5.84"/>
      <path d="M73.5,77.02c0,3.23,2.62,5.85,5.84,5.85s5.85-2.62,5.85-5.85-2.62-5.84-5.85-5.84-5.84,2.62-5.84,5.84"/>
    </g>
  </g>
</svg>